<svg width="800" height="800" viewBox="0 0 24 24" xmlns="http://www.w3.org/2000/svg"><path d="M19.73 16.663a3.467 3.467 0 00.77-2.163 3.5 3.5 0 00-7 0 3.467 3.467 0 00.77 2.163A6.04 6.04 0 0012 18.69a6.04 6.04 0 00-2.27-2.027 3.467 3.467 0 00.77-2.163 3.5 3.5 0 00-7 0 3.467 3.467 0 00.77 2.163A6 6 0 001 22a1 1 0 001 1h20a1 1 0 001-1 6 6 0 00-3.27-5.337zM7 13a1.5 1.5 0 11-1.5 1.5A1.5 1.5 0 017 13zm-3.874 8a4 4 0 017.748 0zM17 13a1.5 1.5 0 11-1.5 1.5A1.5 1.5 0 0117 13zm-3.873 8a4 4 0 017.746 0zM7.2 8.4a1 1 0 001.6 1.2 4 4 0 016.4 0 1 1 0 101.6-1.2 6 6 0 00-2.065-1.742A3.464 3.464 0 0015.5 4.5a3.5 3.5 0 00-7 0 3.464 3.464 0 00.765 2.157A5.994 5.994 0 007.2 8.4zM12 3a1.5 1.5 0 11-1.5 1.5A1.5 1.5 0 0112 3z"/></svg>